<svg width="48" height="48" viewBox="0 0 48 48" fill="none" xmlns="http://www.w3.org/2000/svg">
<path d="M18 38V26C18 24.9391 17.5786 23.9217 16.8284 23.1716C16.0783 22.4214 15.0609 22 14 22H10C8.93913 22 7.92172 22.4214 7.17157 23.1716C6.42143 23.9217 6 24.9391 6 26V38C6 39.0609 6.42143 40.0783 7.17157 40.8284C7.92172 41.5786 8.93913 42 10 42H14C15.0609 42 16.0783 41.5786 16.8284 40.8284C17.5786 40.0783 18 39.0609 18 38ZM18 38V18C18 16.9391 18.4214 15.9217 19.1716 15.1716C19.9217 14.4214 20.9391 14 22 14H26C27.0609 14 28.0783 14.4214 28.8284 15.1716C29.5786 15.9217 30 16.9391 30 18V38M18 38C18 39.0609 18.4214 40.0783 19.1716 40.8284C19.9217 41.5786 20.9391 42 22 42H26C27.0609 42 28.0783 41.5786 28.8284 40.8284C29.5786 40.0783 30 39.0609 30 38M30 38V10C30 8.93913 30.4214 7.92172 31.1716 7.17157C31.9217 6.42143 32.9391 6 34 6H38C39.0609 6 40.0783 6.42143 40.8284 7.17157C41.5786 7.92172 42 8.93913 42 10V38C42 39.0609 41.5786 40.0783 40.8284 40.8284C40.0783 41.5786 39.0609 42 38 42H34C32.9391 42 31.9217 41.5786 31.1716 40.8284C30.4214 40.0783 30 39.0609 30 38Z" stroke="#CB772D" stroke-width="4" stroke-linecap="round" stroke-linejoin="round"/>
</svg>
