<svg width="48" height="48" viewBox="0 0 48 48" fill="none" xmlns="http://www.w3.org/2000/svg">
<path d="M38 22H10M38 22C39.0609 22 40.0783 22.4214 40.8284 23.1716C41.5786 23.9217 42 24.9391 42 26V38C42 39.0609 41.5786 40.0783 40.8284 40.8284C40.0783 41.5786 39.0609 42 38 42H10C8.93913 42 7.92172 41.5786 7.17157 40.8284C6.42143 40.0783 6 39.0609 6 38V26C6 24.9391 6.42143 23.9217 7.17157 23.1716C7.92172 22.4214 8.93913 22 10 22M38 22V18C38 16.9391 37.5786 15.9217 36.8284 15.1716C36.0783 14.4214 35.0609 14 34 14M10 22V18C10 16.9391 10.4214 15.9217 11.1716 15.1716C11.9217 14.4214 12.9391 14 14 14M34 14V10C34 8.93913 33.5786 7.92172 32.8284 7.17157C32.0783 6.42143 31.0609 6 30 6H18C16.9391 6 15.9217 6.42143 15.1716 7.17157C14.4214 7.92172 14 8.93913 14 10V14M34 14H14" stroke="#CB772D" stroke-width="4" stroke-linecap="round" stroke-linejoin="round"/>
</svg>
